<svg width="674" height="238" viewBox="0 0 674 238" fill="none" xmlns="http://www.w3.org/2000/svg">
<rect width="674" height="238" rx="20" fill="black"/>
<rect x="20" y="20" width="36" height="36" fill="white"/>
<rect x="66" y="20" width="36" height="36" fill="white"/>
<rect x="112" y="20" width="36" height="36" fill="white"/>
<rect x="158" y="20" width="36" height="36" fill="white"/>
<rect x="204" y="20" width="36" height="36" fill="white"/>
<rect x="250" y="20" width="36" height="36" fill="white"/>
<rect x="296" y="20" width="36" height="36" fill="white"/>
<rect x="342" y="20" width="36" height="36" fill="white"/>
<rect x="388" y="20" width="36" height="36" fill="white"/>
<rect x="434" y="20" width="36" height="36" fill="white"/>
<rect x="480" y="20" width="36" height="36" fill="white"/>
<rect x="526" y="20" width="36" height="36" fill="white"/>
<rect x="572" y="20" width="36" height="36" fill="white"/>
<rect x="618" y="20" width="36" height="36" fill="white"/>
<rect width="36" height="36" transform="translate(20 66)" fill="white"/>
<path d="M29.4261 92.5L32.3239 75.0455H36.0142L34.821 82.2472H42.3125L43.5057 75.0455H47.1875L44.2898 92.5H40.608L41.8011 85.2898H34.3097L33.1165 92.5H29.4261Z" fill="black"/>
<rect width="36" height="36" transform="translate(66 66)" fill="white"/>
<path d="M92.3807 84.0114C92.0625 85.875 91.446 87.4574 90.5312 88.7585C89.6222 90.0597 88.5114 91.0483 87.1989 91.7244C85.892 92.4006 84.483 92.7386 82.9716 92.7386C81.3864 92.7386 80.0199 92.3778 78.8722 91.6562C77.7301 90.9347 76.9034 89.892 76.392 88.5284C75.8807 87.1591 75.7841 85.5085 76.1023 83.5767C76.4091 81.7074 77.0199 80.1222 77.9347 78.821C78.8494 77.5142 79.9659 76.5199 81.2841 75.8381C82.6023 75.1506 84.0199 74.8068 85.5369 74.8068C87.1108 74.8068 88.4688 75.1705 89.6108 75.8977C90.7585 76.625 91.5852 77.6761 92.0909 79.0511C92.6023 80.4205 92.6989 82.0739 92.3807 84.0114ZM88.7074 83.5767C88.9063 82.3778 88.8977 81.3722 88.6818 80.5597C88.4716 79.7415 88.0852 79.1222 87.5227 78.7017C86.9602 78.2812 86.25 78.071 85.392 78.071C84.4602 78.071 83.6051 78.304 82.8267 78.7699C82.054 79.2358 81.4006 79.9119 80.8665 80.7983C80.3381 81.679 79.9716 82.75 79.767 84.0114C79.5625 85.2159 79.5682 86.2216 79.7841 87.0284C80.0057 87.8352 80.4006 88.446 80.9688 88.8608C81.5426 89.2699 82.2557 89.4744 83.108 89.4744C84.0341 89.4744 84.8807 89.2472 85.6477 88.7926C86.4205 88.3324 87.071 87.6648 87.5994 86.7898C88.1278 85.9091 88.4972 84.8381 88.7074 83.5767ZM82.1534 97.3665C81.6136 97.3665 81.1705 97.1847 80.8239 96.821C80.4773 96.4631 80.3324 96.0312 80.3892 95.5256C80.4517 95.0199 80.696 94.5881 81.1222 94.2301C81.5483 93.8722 82.0312 93.6932 82.571 93.6932C83.1108 93.6932 83.5511 93.8722 83.892 94.2301C84.233 94.5881 84.375 95.0199 84.3182 95.5256C84.267 96.0312 84.0284 96.4631 83.6023 96.821C83.1761 97.1847 82.6932 97.3665 82.1534 97.3665Z" fill="black"/>
<rect width="36" height="36" transform="translate(112 66)" fill="white"/>
<path d="M138.193 81.1562H134.511C134.523 80.6676 134.46 80.2358 134.324 79.8608C134.188 79.4801 133.983 79.1562 133.71 78.8892C133.443 78.6222 133.116 78.4205 132.73 78.2841C132.344 78.142 131.909 78.071 131.426 78.071C130.494 78.071 129.639 78.304 128.861 78.7699C128.082 79.2358 127.426 79.9119 126.892 80.7983C126.358 81.679 125.989 82.7443 125.784 83.9943C125.585 85.1989 125.597 86.2074 125.818 87.0199C126.04 87.8324 126.432 88.446 126.994 88.8608C127.563 89.2699 128.27 89.4744 129.116 89.4744C129.639 89.4744 130.136 89.4091 130.608 89.2784C131.08 89.142 131.509 88.9489 131.895 88.6989C132.287 88.4432 132.628 88.1335 132.918 87.7699C133.213 87.4062 133.443 86.9943 133.608 86.5341H137.315C137.082 87.3352 136.719 88.108 136.224 88.8523C135.736 89.5966 135.131 90.2614 134.409 90.8466C133.688 91.4261 132.866 91.8864 131.946 92.2273C131.026 92.5682 130.017 92.7386 128.92 92.7386C127.335 92.7386 125.974 92.375 124.838 91.6477C123.707 90.9205 122.892 89.8722 122.392 88.5028C121.892 87.1335 121.798 85.483 122.111 83.5511C122.423 81.6818 123.034 80.0966 123.943 78.7955C124.858 77.4886 125.969 76.4972 127.276 75.821C128.588 75.1449 129.991 74.8068 131.486 74.8068C132.526 74.8068 133.466 74.9489 134.307 75.233C135.148 75.517 135.864 75.9318 136.455 76.4773C137.051 77.017 137.5 77.679 137.801 78.4631C138.102 79.2472 138.233 80.1449 138.193 81.1562Z" fill="black"/>
<rect x="158" y="66" width="36" height="36" fill="white"/>
<rect width="36" height="36" transform="translate(204 66)" fill="white"/>
<path d="M226.46 80.6875C226.415 80.2727 226.318 79.9062 226.17 79.5881C226.028 79.2642 225.832 78.9915 225.582 78.7699C225.332 78.5426 225.028 78.3693 224.67 78.25C224.313 78.1307 223.898 78.071 223.426 78.071C222.534 78.071 221.699 78.2926 220.92 78.7358C220.148 79.179 219.489 79.8239 218.943 80.6705C218.398 81.5114 218.026 82.5398 217.827 83.7557C217.622 84.9716 217.622 86.0057 217.827 86.858C218.037 87.7102 218.432 88.3608 219.011 88.8097C219.597 89.2528 220.349 89.4744 221.27 89.4744C222.105 89.4744 222.855 89.3267 223.52 89.0312C224.185 88.7301 224.727 88.3068 225.148 87.7614C225.574 87.2159 225.847 86.571 225.966 85.8267L226.699 85.9375H222.207L222.668 83.1591H229.972L229.597 85.358C229.352 86.892 228.815 88.2102 227.986 89.3125C227.156 90.4148 226.122 91.2614 224.884 91.8523C223.651 92.4432 222.298 92.7386 220.827 92.7386C219.19 92.7386 217.813 92.3778 216.693 91.6562C215.58 90.929 214.787 89.8977 214.315 88.5625C213.849 87.2216 213.767 85.6307 214.068 83.7898C214.301 82.375 214.716 81.1136 215.312 80.0057C215.915 78.892 216.651 77.9489 217.52 77.1761C218.389 76.4034 219.352 75.8153 220.409 75.4119C221.472 75.0085 222.577 74.8068 223.724 74.8068C224.713 74.8068 225.608 74.9517 226.409 75.2415C227.216 75.5256 227.906 75.929 228.48 76.4517C229.06 76.9744 229.497 77.5966 229.793 78.3182C230.094 79.0341 230.233 79.8239 230.21 80.6875H226.46Z" fill="black"/>
<rect width="36" height="36" transform="translate(250 66)" fill="white"/>
<path d="M276.381 84.0114C276.063 85.875 275.446 87.4574 274.531 88.7585C273.622 90.0597 272.511 91.0483 271.199 91.7244C269.892 92.4006 268.483 92.7386 266.972 92.7386C265.386 92.7386 264.02 92.3778 262.872 91.6562C261.73 90.9347 260.903 89.892 260.392 88.5284C259.881 87.1591 259.784 85.5085 260.102 83.5767C260.409 81.7074 261.02 80.1222 261.935 78.821C262.849 77.5142 263.966 76.5199 265.284 75.8381C266.602 75.1506 268.02 74.8068 269.537 74.8068C271.111 74.8068 272.469 75.1705 273.611 75.8977C274.759 76.625 275.585 77.6761 276.091 79.0511C276.602 80.4205 276.699 82.0739 276.381 84.0114ZM272.707 83.5767C272.906 82.3778 272.898 81.3722 272.682 80.5597C272.472 79.7415 272.085 79.1222 271.523 78.7017C270.96 78.2812 270.25 78.071 269.392 78.071C268.46 78.071 267.605 78.304 266.827 78.7699C266.054 79.2358 265.401 79.9119 264.866 80.7983C264.338 81.679 263.972 82.75 263.767 84.0114C263.563 85.2159 263.568 86.2216 263.784 87.0284C264.006 87.8352 264.401 88.446 264.969 88.8608C265.543 89.2699 266.256 89.4744 267.108 89.4744C268.034 89.4744 268.881 89.2472 269.648 88.7926C270.42 88.3324 271.071 87.6648 271.599 86.7898C272.128 85.9091 272.497 84.8381 272.707 83.5767ZM267.534 73.3239L265.531 73.2983C265.707 72.2131 266.111 71.3807 266.741 70.8011C267.372 70.2159 268.074 69.9233 268.847 69.9233C269.244 69.9233 269.577 69.9886 269.844 70.1193C270.111 70.25 270.347 70.3977 270.551 70.5625C270.756 70.7273 270.952 70.875 271.139 71.0057C271.332 71.1364 271.551 71.2017 271.795 71.2017C272.119 71.2017 272.389 71.0795 272.605 70.8352C272.821 70.5909 272.96 70.2727 273.023 69.8807L274.991 69.9403C274.804 71.0199 274.395 71.8494 273.764 72.429C273.134 73.0028 272.432 73.2955 271.659 73.3068C271.233 73.3068 270.889 73.2415 270.628 73.1108C270.366 72.9801 270.142 72.8324 269.955 72.6676C269.767 72.5028 269.582 72.3551 269.401 72.2244C269.219 72.0937 268.997 72.0284 268.736 72.0284C268.446 72.0284 268.19 72.1449 267.969 72.3778C267.747 72.6108 267.602 72.9261 267.534 73.3239Z" fill="black"/>
<rect x="296" y="66" width="36" height="36" fill="white"/>
<rect width="36" height="36" transform="translate(342 66)" fill="white"/>
<path d="M364.815 75.0455L361.918 92.5H358.227L360.545 78.5483H360.443L356.028 81.054L356.574 77.7812L361.347 75.0455H364.815Z" fill="black"/>
<rect width="36" height="36" transform="translate(388 66)" fill="white"/>
<path d="M404.608 92.8835C403.142 92.8835 401.94 92.5256 401.003 91.8097C400.065 91.0881 399.426 90.0483 399.085 88.6903C398.75 87.3324 398.741 85.6989 399.06 83.7898C399.384 81.8864 399.938 80.2642 400.722 78.9233C401.511 77.5824 402.489 76.5625 403.653 75.8636C404.824 75.1591 406.139 74.8068 407.599 74.8068C409.054 74.8068 410.25 75.1591 411.188 75.8636C412.125 76.5682 412.767 77.5881 413.114 78.9233C413.466 80.2585 413.483 81.8807 413.165 83.7898C412.847 85.7045 412.293 87.3409 411.503 88.6989C410.713 90.0511 409.733 91.0881 408.562 91.8097C407.392 92.5256 406.074 92.8835 404.608 92.8835ZM405.119 89.8239C406.125 89.8239 407.006 89.321 407.761 88.3153C408.517 87.3097 409.063 85.8011 409.398 83.7898C409.619 82.4716 409.668 81.3722 409.543 80.4915C409.423 79.6051 409.153 78.9403 408.733 78.4972C408.313 78.054 407.77 77.8324 407.105 77.8324C406.111 77.8324 405.23 78.3324 404.463 79.3324C403.702 80.3267 403.156 81.8125 402.827 83.7898C402.605 85.1307 402.557 86.25 402.682 87.1477C402.807 88.0398 403.08 88.7102 403.5 89.1591C403.92 89.6023 404.46 89.8239 405.119 89.8239Z" fill="black"/>
<rect x="434" y="66" width="36" height="36" fill="white"/>
<rect width="36" height="36" transform="translate(480 66)" fill="white"/>
<path d="M506.923 75.0455L504.026 92.5H500.838L495.085 81.5142H494.949L493.116 92.5H489.426L492.324 75.0455H495.562L501.29 86.0227H501.435L503.25 75.0455H506.923Z" fill="black"/>
<rect width="36" height="36" transform="translate(526 66)" fill="white"/>
<path d="M548.46 80.6875C548.415 80.2727 548.318 79.9062 548.17 79.5881C548.028 79.2642 547.832 78.9915 547.582 78.7699C547.332 78.5426 547.028 78.3693 546.67 78.25C546.313 78.1307 545.898 78.071 545.426 78.071C544.534 78.071 543.699 78.2926 542.92 78.7358C542.148 79.179 541.489 79.8239 540.943 80.6705C540.398 81.5114 540.026 82.5398 539.827 83.7557C539.622 84.9716 539.622 86.0057 539.827 86.858C540.037 87.7102 540.432 88.3608 541.011 88.8097C541.597 89.2528 542.349 89.4744 543.27 89.4744C544.105 89.4744 544.855 89.3267 545.52 89.0312C546.185 88.7301 546.727 88.3068 547.148 87.7614C547.574 87.2159 547.847 86.571 547.966 85.8267L548.699 85.9375H544.207L544.668 83.1591H551.972L551.597 85.358C551.352 86.892 550.815 88.2102 549.986 89.3125C549.156 90.4148 548.122 91.2614 546.884 91.8523C545.651 92.4432 544.298 92.7386 542.827 92.7386C541.19 92.7386 539.813 92.3778 538.693 91.6562C537.58 90.929 536.787 89.8977 536.315 88.5625C535.849 87.2216 535.767 85.6307 536.068 83.7898C536.301 82.375 536.716 81.1136 537.312 80.0057C537.915 78.892 538.651 77.9489 539.52 77.1761C540.389 76.4034 541.352 75.8153 542.409 75.4119C543.472 75.0085 544.577 74.8068 545.724 74.8068C546.713 74.8068 547.608 74.9517 548.409 75.2415C549.216 75.5256 549.906 75.929 550.48 76.4517C551.06 76.9744 551.497 77.5966 551.793 78.3182C552.094 79.0341 552.233 79.8239 552.21 80.6875H548.46Z" fill="black"/>
<rect width="36" height="36" transform="translate(572 66)" fill="white"/>
<path d="M598.381 84.0114C598.063 85.875 597.446 87.4574 596.531 88.7585C595.622 90.0597 594.511 91.0483 593.199 91.7244C591.892 92.4006 590.483 92.7386 588.972 92.7386C587.386 92.7386 586.02 92.3778 584.872 91.6562C583.73 90.9347 582.903 89.892 582.392 88.5284C581.881 87.1591 581.784 85.5085 582.102 83.5767C582.409 81.7074 583.02 80.1222 583.935 78.821C584.849 77.5142 585.966 76.5199 587.284 75.8381C588.602 75.1506 590.02 74.8068 591.537 74.8068C593.111 74.8068 594.469 75.1705 595.611 75.8977C596.759 76.625 597.585 77.6761 598.091 79.0511C598.602 80.4205 598.699 82.0739 598.381 84.0114ZM594.707 83.5767C594.906 82.3778 594.898 81.3722 594.682 80.5597C594.472 79.7415 594.085 79.1222 593.523 78.7017C592.96 78.2812 592.25 78.071 591.392 78.071C590.46 78.071 589.605 78.304 588.827 78.7699C588.054 79.2358 587.401 79.9119 586.866 80.7983C586.338 81.679 585.972 82.75 585.767 84.0114C585.563 85.2159 585.568 86.2216 585.784 87.0284C586.006 87.8352 586.401 88.446 586.969 88.8608C587.543 89.2699 588.256 89.4744 589.108 89.4744C590.034 89.4744 590.881 89.2472 591.648 88.7926C592.42 88.3324 593.071 87.6648 593.599 86.7898C594.128 85.9091 594.497 84.8381 594.707 83.5767ZM590.651 73.358L593.114 69.4801H596.472L593.224 73.358H590.651Z" fill="black"/>
<rect width="36" height="36" transform="translate(618 66)" fill="white"/>
<path d="M644.923 75.0455L642.026 92.5H638.838L633.085 81.5142H632.949L631.116 92.5H627.426L630.324 75.0455H633.562L639.29 86.0227H639.435L641.25 75.0455H644.923Z" fill="black"/>
<rect x="20" y="112" width="36" height="36" fill="white"/>
<rect x="66" y="112" width="36" height="36" fill="white"/>
<rect x="112" y="112" width="36" height="36" fill="white"/>
<rect x="158" y="112" width="36" height="36" fill="white"/>
<rect x="204" y="112" width="36" height="36" fill="white"/>
<rect x="250" y="112" width="36" height="36" fill="white"/>
<rect x="296" y="112" width="36" height="36" fill="white"/>
<rect x="342" y="112" width="36" height="36" fill="white"/>
<rect x="388" y="112" width="36" height="36" fill="white"/>
<rect x="434" y="112" width="36" height="36" fill="white"/>
<rect x="480" y="112" width="36" height="36" fill="white"/>
<rect x="526" y="112" width="36" height="36" fill="white"/>
<rect x="572" y="112" width="36" height="36" fill="white"/>
<rect x="618" y="112" width="36" height="36" fill="white"/>
<rect x="217" y="188" width="240" height="30" fill="white"/>
</svg>
