<svg width="444" height="284" viewBox="0 0 444 284" fill="none" xmlns="http://www.w3.org/2000/svg">
<rect width="444" height="284" rx="20" fill="black"/>
<rect x="66" y="20" width="36" height="36" fill="white"/>
<rect x="112" y="20" width="36" height="36" fill="white"/>
<rect x="158" y="20" width="36" height="36" fill="white"/>
<rect x="204" y="20" width="36" height="36" fill="white"/>
<rect x="250" y="20" width="36" height="36" fill="white"/>
<rect x="296" y="20" width="36" height="36" fill="white"/>
<rect x="342" y="20" width="36" height="36" fill="white"/>
<rect x="20" y="66" width="36" height="36" fill="white"/>
<rect width="36" height="36" transform="translate(66 66)" fill="white"/>
<path d="M73.9972 94L77.3778 73.6364H81.6832L80.2912 82.0384H89.0312L90.4233 73.6364H94.7188L91.3381 94H87.0426L88.4347 85.5881H79.6946L78.3026 94H73.9972Z" fill="black"/>
<rect width="36" height="36" transform="translate(112 66)" fill="white"/>
<path d="M139.861 84.0966C139.49 86.2708 138.77 88.117 137.703 89.6349C136.643 91.1529 135.347 92.3063 133.815 93.0952C132.291 93.884 130.647 94.2784 128.884 94.2784C127.034 94.2784 125.44 93.8575 124.101 93.0156C122.768 92.1738 121.804 90.9574 121.207 89.3665C120.611 87.7689 120.498 85.8433 120.869 83.5895C121.227 81.4086 121.94 79.5592 123.007 78.0412C124.074 76.5166 125.377 75.3565 126.915 74.5611C128.453 73.759 130.107 73.358 131.876 73.358C133.713 73.358 135.297 73.7822 136.629 74.6307C137.968 75.4792 138.933 76.7055 139.523 78.3097C140.119 79.9072 140.232 81.8362 139.861 84.0966ZM135.575 83.5895C135.807 82.1908 135.797 81.0175 135.545 80.0696C135.3 79.1151 134.849 78.3925 134.193 77.902C133.537 77.4115 132.708 77.1662 131.707 77.1662C130.62 77.1662 129.623 77.438 128.714 77.9815C127.813 78.5251 127.051 79.3139 126.428 80.348C125.811 81.3755 125.384 82.625 125.145 84.0966C124.906 85.5019 124.913 86.6752 125.165 87.6165C125.423 88.5578 125.884 89.2704 126.547 89.7543C127.216 90.2315 128.048 90.4702 129.043 90.4702C130.123 90.4702 131.111 90.205 132.006 89.6747C132.907 89.1378 133.666 88.3589 134.283 87.3381C134.899 86.3106 135.33 85.0611 135.575 83.5895ZM127.929 99.6776C127.299 99.6776 126.782 99.4654 126.378 99.0412C125.973 98.6236 125.804 98.1198 125.871 97.5298C125.944 96.9399 126.229 96.4361 126.726 96.0185C127.223 95.6009 127.786 95.392 128.416 95.392C129.046 95.392 129.56 95.6009 129.957 96.0185C130.355 96.4361 130.521 96.9399 130.455 97.5298C130.395 98.1198 130.116 98.6236 129.619 99.0412C129.122 99.4654 128.559 99.6776 127.929 99.6776Z" fill="black"/>
<rect width="36" height="36" transform="translate(158 66)" fill="white"/>
<path d="M185.642 80.7656H181.347C181.36 80.1955 181.287 79.6918 181.128 79.2543C180.969 78.8101 180.73 78.4323 180.412 78.1207C180.1 77.8092 179.719 77.5739 179.268 77.4148C178.818 77.2491 178.311 77.1662 177.747 77.1662C176.66 77.1662 175.662 77.438 174.754 77.9815C173.846 78.5251 173.08 79.3139 172.457 80.348C171.834 81.3755 171.403 82.6184 171.165 84.0767C170.933 85.482 170.946 86.6586 171.205 87.6065C171.463 88.5545 171.92 89.2704 172.577 89.7543C173.24 90.2315 174.065 90.4702 175.053 90.4702C175.662 90.4702 176.242 90.3939 176.793 90.2415C177.343 90.0824 177.843 89.857 178.294 89.5653C178.751 89.267 179.149 88.9058 179.487 88.4815C179.832 88.0573 180.1 87.5767 180.293 87.0398H184.618C184.346 87.9744 183.922 88.8759 183.345 89.7443C182.775 90.6127 182.069 91.3883 181.227 92.071C180.385 92.7472 179.428 93.2841 178.354 93.6818C177.28 94.0795 176.103 94.2784 174.824 94.2784C172.974 94.2784 171.387 93.8542 170.061 93.0057C168.742 92.1572 167.791 90.9342 167.207 89.3366C166.624 87.7391 166.515 85.8134 166.879 83.5597C167.244 81.3788 167.956 79.5294 169.017 78.0114C170.084 76.4867 171.38 75.33 172.905 74.5412C174.436 73.7524 176.073 73.358 177.817 73.358C179.03 73.358 180.127 73.5237 181.108 73.8551C182.089 74.1866 182.924 74.6705 183.614 75.3068C184.31 75.9366 184.833 76.7088 185.185 77.6236C185.536 78.5384 185.688 79.5857 185.642 80.7656Z" fill="black"/>
<rect x="204" y="66" width="36" height="36" fill="white"/>
<rect width="36" height="36" transform="translate(250 66)" fill="white"/>
<path d="M273.287 80.2188C273.234 79.7348 273.121 79.3073 272.949 78.9361C272.783 78.5582 272.554 78.2401 272.263 77.9815C271.971 77.7164 271.616 77.5142 271.199 77.375C270.781 77.2358 270.297 77.1662 269.747 77.1662C268.706 77.1662 267.732 77.4247 266.824 77.9418C265.922 78.4588 265.153 79.2112 264.517 80.1989C263.881 81.1799 263.446 82.3797 263.214 83.7983C262.976 85.2169 262.976 86.4233 263.214 87.4176C263.46 88.4119 263.92 89.1709 264.597 89.6946C265.279 90.2116 266.158 90.4702 267.232 90.4702C268.206 90.4702 269.081 90.2978 269.857 89.9531C270.632 89.6018 271.265 89.108 271.756 88.4716C272.253 87.8352 272.571 87.0829 272.71 86.2145L273.565 86.3438H268.325L268.862 83.1023H277.384L276.946 85.6676C276.661 87.4574 276.035 88.9953 275.067 90.2812C274.099 91.5672 272.893 92.5549 271.447 93.2443C270.009 93.9337 268.431 94.2784 266.714 94.2784C264.805 94.2784 263.198 93.8575 261.892 93.0156C260.593 92.1671 259.668 90.964 259.118 89.4062C258.574 87.8419 258.478 85.9858 258.83 83.8381C259.101 82.1875 259.585 80.7159 260.281 79.4233C260.984 78.1241 261.842 77.0237 262.857 76.1222C263.871 75.2206 264.994 74.5346 266.227 74.0639C267.467 73.5933 268.756 73.358 270.095 73.358C271.249 73.358 272.293 73.527 273.227 73.8651C274.169 74.1965 274.974 74.6671 275.643 75.277C276.32 75.8868 276.83 76.6127 277.175 77.4545C277.526 78.2898 277.688 79.2112 277.662 80.2188H273.287Z" fill="black"/>
<rect width="36" height="36" transform="translate(296 66)" fill="white"/>
<path d="M323.861 84.0966C323.49 86.2708 322.77 88.117 321.703 89.6349C320.643 91.1529 319.347 92.3063 317.815 93.0952C316.291 93.884 314.647 94.2784 312.884 94.2784C311.034 94.2784 309.44 93.8575 308.101 93.0156C306.768 92.1738 305.804 90.9574 305.207 89.3665C304.611 87.7689 304.498 85.8433 304.869 83.5895C305.227 81.4086 305.94 79.5592 307.007 78.0412C308.074 76.5166 309.377 75.3565 310.915 74.5611C312.453 73.759 314.107 73.358 315.876 73.358C317.713 73.358 319.297 73.7822 320.629 74.6307C321.968 75.4792 322.933 76.7055 323.523 78.3097C324.119 79.9072 324.232 81.8362 323.861 84.0966ZM319.575 83.5895C319.807 82.1908 319.797 81.0175 319.545 80.0696C319.3 79.1151 318.849 78.3925 318.193 77.902C317.537 77.4115 316.708 77.1662 315.707 77.1662C314.62 77.1662 313.623 77.438 312.714 77.9815C311.813 78.5251 311.051 79.3139 310.428 80.348C309.811 81.3755 309.384 82.625 309.145 84.0966C308.906 85.5019 308.913 86.6752 309.165 87.6165C309.423 88.5578 309.884 89.2704 310.547 89.7543C311.216 90.2315 312.048 90.4702 313.043 90.4702C314.123 90.4702 315.111 90.205 316.006 89.6747C316.907 89.1378 317.666 88.3589 318.283 87.3381C318.899 86.3106 319.33 85.0611 319.575 83.5895ZM313.54 71.6278L311.203 71.598C311.409 70.3319 311.879 69.3608 312.615 68.6847C313.351 68.0019 314.17 67.6605 315.071 67.6605C315.535 67.6605 315.923 67.7367 316.234 67.8892C316.546 68.0417 316.821 68.214 317.06 68.4062C317.298 68.5985 317.527 68.7708 317.746 68.9233C317.971 69.0758 318.226 69.152 318.511 69.152C318.889 69.152 319.204 69.0095 319.456 68.7244C319.708 68.4394 319.87 68.0682 319.943 67.6108L322.24 67.6804C322.021 68.9399 321.544 69.9077 320.808 70.5838C320.072 71.2533 319.254 71.5947 318.352 71.608C317.855 71.608 317.454 71.5317 317.149 71.3793C316.844 71.2268 316.582 71.0544 316.364 70.8622C316.145 70.67 315.929 70.4976 315.717 70.3452C315.505 70.1927 315.247 70.1165 314.942 70.1165C314.604 70.1165 314.305 70.2524 314.047 70.5241C313.788 70.7959 313.619 71.1638 313.54 71.6278Z" fill="black"/>
<rect x="342" y="66" width="36" height="36" fill="white"/>
<rect x="388" y="66" width="36" height="36" fill="white"/>
<rect x="20" y="112" width="36" height="36" fill="white"/>
<rect width="36" height="36" transform="translate(66 112)" fill="white"/>
<path d="M89.6179 119.636L86.2372 140H81.9318L84.6364 123.723H84.517L79.3665 126.646L80.0028 122.828L85.571 119.636H89.6179Z" fill="black"/>
<rect width="36" height="36" transform="translate(112 112)" fill="white"/>
<path d="M128.293 140.447C126.582 140.447 125.18 140.03 124.087 139.195C122.993 138.353 122.247 137.14 121.849 135.555C121.458 133.971 121.448 132.065 121.82 129.838C122.197 127.617 122.844 125.725 123.759 124.161C124.68 122.596 125.82 121.406 127.179 120.591C128.545 119.769 130.079 119.358 131.783 119.358C133.48 119.358 134.875 119.769 135.969 120.591C137.062 121.413 137.812 122.603 138.216 124.161C138.627 125.718 138.647 127.611 138.276 129.838C137.904 132.072 137.258 133.981 136.337 135.565C135.415 137.143 134.272 138.353 132.906 139.195C131.541 140.03 130.003 140.447 128.293 140.447ZM128.889 136.878C130.063 136.878 131.09 136.291 131.972 135.118C132.853 133.945 133.49 132.185 133.881 129.838C134.139 128.3 134.196 127.018 134.05 125.99C133.911 124.956 133.596 124.18 133.105 123.663C132.615 123.146 131.982 122.888 131.206 122.888C130.046 122.888 129.018 123.471 128.124 124.638C127.235 125.798 126.599 127.531 126.214 129.838C125.956 131.402 125.9 132.708 126.045 133.756C126.191 134.796 126.509 135.579 127 136.102C127.491 136.619 128.12 136.878 128.889 136.878Z" fill="black"/>
<rect x="158" y="112" width="36" height="36" fill="white"/>
<rect width="36" height="36" transform="translate(204 112)" fill="white"/>
<path d="M232.411 119.636L229.03 140H225.311L218.599 127.183H218.44L216.303 140H211.997L215.378 119.636H219.156L225.838 132.443H226.007L228.125 119.636H232.411Z" fill="black"/>
<rect width="36" height="36" transform="translate(250 112)" fill="white"/>
<path d="M273.287 126.219C273.234 125.735 273.121 125.307 272.949 124.936C272.783 124.558 272.554 124.24 272.263 123.982C271.971 123.716 271.616 123.514 271.199 123.375C270.781 123.236 270.297 123.166 269.747 123.166C268.706 123.166 267.732 123.425 266.824 123.942C265.922 124.459 265.153 125.211 264.517 126.199C263.881 127.18 263.446 128.38 263.214 129.798C262.976 131.217 262.976 132.423 263.214 133.418C263.46 134.412 263.92 135.171 264.597 135.695C265.279 136.212 266.158 136.47 267.232 136.47C268.206 136.47 269.081 136.298 269.857 135.953C270.632 135.602 271.265 135.108 271.756 134.472C272.253 133.835 272.571 133.083 272.71 132.214L273.565 132.344H268.325L268.862 129.102H277.384L276.946 131.668C276.661 133.457 276.035 134.995 275.067 136.281C274.099 137.567 272.893 138.555 271.447 139.244C270.009 139.934 268.431 140.278 266.714 140.278C264.805 140.278 263.198 139.857 261.892 139.016C260.593 138.167 259.668 136.964 259.118 135.406C258.574 133.842 258.478 131.986 258.83 129.838C259.101 128.187 259.585 126.716 260.281 125.423C260.984 124.124 261.842 123.024 262.857 122.122C263.871 121.221 264.994 120.535 266.227 120.064C267.467 119.593 268.756 119.358 270.095 119.358C271.249 119.358 272.293 119.527 273.227 119.865C274.169 120.196 274.974 120.667 275.643 121.277C276.32 121.887 276.83 122.613 277.175 123.455C277.526 124.29 277.688 125.211 277.662 126.219H273.287Z" fill="black"/>
<rect width="36" height="36" transform="translate(296 112)" fill="white"/>
<path d="M323.861 130.097C323.49 132.271 322.77 134.117 321.703 135.635C320.643 137.153 319.347 138.306 317.815 139.095C316.291 139.884 314.647 140.278 312.884 140.278C311.034 140.278 309.44 139.857 308.101 139.016C306.768 138.174 305.804 136.957 305.207 135.366C304.611 133.769 304.498 131.843 304.869 129.589C305.227 127.409 305.94 125.559 307.007 124.041C308.074 122.517 309.377 121.357 310.915 120.561C312.453 119.759 314.107 119.358 315.876 119.358C317.713 119.358 319.297 119.782 320.629 120.631C321.968 121.479 322.933 122.705 323.523 124.31C324.119 125.907 324.232 127.836 323.861 130.097ZM319.575 129.589C319.807 128.191 319.797 127.018 319.545 126.07C319.3 125.115 318.849 124.393 318.193 123.902C317.537 123.411 316.708 123.166 315.707 123.166C314.62 123.166 313.623 123.438 312.714 123.982C311.813 124.525 311.051 125.314 310.428 126.348C309.811 127.375 309.384 128.625 309.145 130.097C308.906 131.502 308.913 132.675 309.165 133.616C309.423 134.558 309.884 135.27 310.547 135.754C311.216 136.232 312.048 136.47 313.043 136.47C314.123 136.47 315.111 136.205 316.006 135.675C316.907 135.138 317.666 134.359 318.283 133.338C318.899 132.311 319.33 131.061 319.575 129.589ZM314.842 117.668L317.716 113.143H321.634L317.845 117.668H314.842Z" fill="black"/>
<rect width="36" height="36" transform="translate(342 112)" fill="white"/>
<path d="M370.411 119.636L367.03 140H363.311L356.599 127.183H356.44L354.303 140H349.997L353.378 119.636H357.156L363.838 132.443H364.007L366.125 119.636H370.411Z" fill="black"/>
<rect x="388" y="112" width="36" height="36" fill="white"/>
<rect x="66" y="158" width="36" height="36" fill="white"/>
<rect x="112" y="158" width="36" height="36" fill="white"/>
<rect x="158" y="158" width="36" height="36" fill="white"/>
<rect x="204" y="158" width="36" height="36" fill="white"/>
<rect x="250" y="158" width="36" height="36" fill="white"/>
<rect x="296" y="158" width="36" height="36" fill="white"/>
<rect x="342" y="158" width="36" height="36" fill="white"/>
<rect x="132" y="234" width="180" height="30" fill="white"/>
</svg>
